<?xml version="1.0" encoding="utf-8"?>
<!-- Generator: Adobe Illustrator 22.1.0, SVG Export Plug-In . SVG Version: 6.00 Build 0)  -->
<svg version="1.1" id="Layer_1" xmlns="http://www.w3.org/2000/svg" xmlns:xlink="http://www.w3.org/1999/xlink" x="0px" y="0px"
	 viewBox="0 0 1080 540" style="enable-background:new 0 0 1080 540;" xml:space="preserve">
<style type="text/css">
	.st0{fill:#FFFFFF;}
	.st1{fill:none;stroke:#000000;stroke-width:8;stroke-miterlimit:10;}
	.st2{fill:none;stroke:#000000;stroke-width:5;stroke-miterlimit:10;}
	.st3{font-family:'Quicksand-Regular';}
	.st4{font-size:83px;}
	.st5{font-family:'Quicksand-Bold';}
	.st6{fill:none;stroke:#000000;stroke-width:5;}
	.st7{fill:#64E3FF;stroke:#000000;stroke-width:6;}
	.st8{fill:#FF7088;stroke:#000000;stroke-width:6;}
	.st9{fill:#F5CA42;stroke:#000000;stroke-width:6;}
	.st10{fill:#86FF79;stroke:#000000;stroke-width:6;}
	.st11{fill:none;stroke:#FFFFFF;stroke-width:8;stroke-miterlimit:10;}
	.st12{fill:none;stroke:#FFFFFF;stroke-width:5;stroke-miterlimit:10;}
	.st13{fill:none;stroke:#FFFFFF;stroke-width:5;}
	.st14{fill:#64E3FF;stroke:#FFFFFF;stroke-width:6;}
	.st15{fill:#FF7088;stroke:#FFFFFF;stroke-width:6;}
	.st16{fill:#F5CA42;stroke:#FFFFFF;stroke-width:6;}
	.st17{fill:#86FF79;stroke:#FFFFFF;stroke-width:6;}
</style>
<g id="background_1_">
	<rect x="540" class="st0" width="540" height="540"/>
</g>
<g id="background">
	<rect width="540" height="540"/>
</g>
<g id="Layer_1_1_">
	<polyline class="st1" points="806.5,55.2 806.5,342.4 755.5,342.4 687.2,381.8 	"/>
	<path class="st2" d="M813.8,18c2.7,5.2,3.6,12.5,2.8,19.1c-0.4,3.4-3.4,6.7-4.8,9.3c-4.1,7.9-6.7,7.9-10.8,0
		c-1.3-2.4-4.1-5.3-4.6-8.3c-1.1-6.9-0.2-14.7,2.6-20.1C803.2,10.2,809.8,10.2,813.8,18z"/>
	<text transform="matrix(1 0 0 1 629.6682 501.2499)" class="st3 st4">SIPH</text>
	<text transform="matrix(1 0 0 1 810.7502 501.2499)" class="st5 st4">WEB</text>
	<path class="st6" d="M807.5,107.4v8.9v9.8l0,0v8.5c0,6,6.9,10.8,15.4,10.8h16.7c8.5,0,15.4-4.9,15.4-10.8v-27.1
		c0-6-6.9-10.8-15.4-10.8"/>
	<path class="st6" d="M806.5,107.9v8.9v9.8l0,0v8.5c0,6-6.9,10.8-15.4,10.8h-16.7c-8.5,0-15.4-4.9-15.4-10.8v-27.2
		c0-6,6.9-10.8,15.4-10.8h16.7"/>
	<path class="st6" d="M791,48.3c8.5,0,15.4,4.9,15.4,10.8V68l0.2,4.7l-0.2,5.1v8.5c0,6-6.9,10.8-15.4,10.8h-16.7
		c-8.5,0-15.4-4.9-15.4-10.8V59.2c0-6,6.9-10.8,15.4-10.8L791,48.3L791,48.3z"/>
	<path class="st6" d="M807.3,156v8.9v9.8l0,0v8.5c0,6,6.9,10.8,15.4,10.8h16.7c8.5,0,15.4-4.9,15.4-10.8V156c0-6-6.9-10.8-15.4-10.8
		h-16.7"/>
	<path class="st6" d="M806.5,156.5v8.9v9.8l0,0v8.5c0,6-6.9,10.8-15.4,10.8h-16.7c-8.5,0-15.4-4.9-15.4-10.8v-27.2
		c0-6,6.9-10.8,15.4-10.8H791"/>
	<polyline class="st1" points="806.5,282.5 760,282.5 676.8,230.1 	"/>
	<polyline class="st1" points="806.5,245 872.7,245 933,193.2 	"/>
	<polyline class="st1" points="806.5,314.4 851.8,314.4 934.5,363.6 	"/>
	<ellipse class="st7" cx="676.8" cy="230.1" rx="53.3" ry="53.3"/>
	<ellipse class="st8" cx="933" cy="363.6" rx="50" ry="50"/>
	<ellipse class="st9" cx="687.2" cy="381.8" rx="23.7" ry="23.7"/>
	<path class="st6" d="M822.8,47.8c-8.5,0-15.4,4.9-15.4,10.8v8.9v5.2v4.6v8.5c0,6,6.9,10.8,15.4,10.8h16.7c8.5,0,15.4-4.9,15.4-10.8
		V58.7c0-6-6.9-10.8-15.4-10.8L822.8,47.8L822.8,47.8z"/>
	<path class="st6" d="M759,73.3h2.8c10.8,0,19.5,8.7,19.5,19.5v4.3"/>
	<path class="st6" d="M759,123.2h2.8c10.8,0,19.5,8.7,19.5,19.5v3.2"/>
	<path class="st6" d="M759,171.7h2.8c10.8,0,19.5,8.7,19.5,19.5v3.3"/>
	<path class="st6" d="M855,73.3h-3.4c-10.8,0-19.5,8.7-19.5,19.5v3.8"/>
	<path class="st6" d="M855,123.2h-3.5c-10.8,0-19.5,8.7-19.5,19.5v2.7"/>
	<path class="st6" d="M854.8,171.7h-3.3c-10.8,0-19.5,8.7-19.5,19.5v2.8"/>
	
		<ellipse transform="matrix(0.7071 -0.7071 0.7071 0.7071 136.0656 716.5929)" class="st10" cx="933" cy="194.1" rx="37.4" ry="37.4"/>
	<polyline class="st11" points="272.2,55.2 272.2,342.4 221.2,342.4 153.1,381.8 	"/>
	<path class="st12" d="M279.6,18c2.7,5.2,3.6,12.5,2.8,19.1c-0.4,3.4-3.4,6.7-4.8,9.3c-4.1,7.9-6.7,7.9-10.8,0
		c-1.3-2.4-4.1-5.3-4.6-8.3c-1.1-6.9-0.2-14.7,2.6-20.1C269,10.2,275.5,10.2,279.6,18z"/>
	<text transform="matrix(1 0 0 1 95.5024 501.2499)" class="st0 st3 st4">SIPH</text>
	<text transform="matrix(1 0 0 1 276.5842 501.2499)" class="st0 st5 st4">WEB</text>
	<path class="st13" d="M273.4,107.4v8.9v9.8l0,0v8.5c0,6,6.9,10.8,15.4,10.8h16.7c8.5,0,15.4-4.9,15.4-10.8v-27.1
		c0-6-6.9-10.8-15.4-10.8"/>
	<path class="st13" d="M272.4,107.9v8.9v9.8l0,0v8.5c0,6-6.9,10.8-15.4,10.8h-16.7c-8.5,0-15.4-4.9-15.4-10.8v-27.2
		c0-6,6.9-10.8,15.4-10.8H257"/>
	<path class="st13" d="M256.9,48.3c8.5,0,15.4,4.9,15.4,10.8V68l0.2,4.7l-0.2,5.1v8.5c0,6-6.9,10.8-15.4,10.8h-16.7
		c-8.5,0-15.4-4.9-15.4-10.8V59.2c0-6,6.9-10.8,15.4-10.8L256.9,48.3L256.9,48.3z"/>
	<path class="st13" d="M273.1,156v8.9v9.8l0,0v8.5c0,6,6.9,10.8,15.4,10.8h16.7c8.5,0,15.4-4.9,15.4-10.8V156
		c0-6-6.9-10.8-15.4-10.8h-16.7"/>
	<path class="st13" d="M272.2,156.5v8.9v9.8l0,0v8.5c0,6-6.9,10.8-15.4,10.8h-16.7c-8.5,0-15.4-4.9-15.4-10.8v-27.2
		c0-6,6.9-10.8,15.4-10.8h16.7"/>
	<polyline class="st11" points="272.2,282.5 225.8,282.5 142.6,230.1 	"/>
	<polyline class="st11" points="272.2,245 338.5,245 398.9,193.2 	"/>
	<polyline class="st11" points="272.2,314.4 317.5,314.4 400.4,363.6 	"/>
	
		<ellipse transform="matrix(0.7071 -0.7071 0.7071 0.7071 -120.9931 168.2231)" class="st14" cx="142.6" cy="230.2" rx="53.3" ry="53.3"/>
	<ellipse class="st15" cx="398.9" cy="363.6" rx="50" ry="50"/>
	<ellipse class="st16" cx="153.1" cy="381.8" rx="23.7" ry="23.7"/>
	<path class="st13" d="M288.6,47.8c-8.5,0-15.4,4.9-15.4,10.8v8.9v5.2v4.6v8.5c0,6,6.9,10.8,15.4,10.8h16.7
		c8.5,0,15.4-4.9,15.4-10.8V58.7c0-6-6.9-10.8-15.4-10.8L288.6,47.8L288.6,47.8z"/>
	<path class="st13" d="M224.8,73.3h2.8c10.8,0,19.5,8.7,19.5,19.5v4.3"/>
	<path class="st13" d="M224.8,123.2h2.8c10.8,0,19.5,8.7,19.5,19.5v3.2"/>
	<path class="st13" d="M224.8,171.7h2.8c10.8,0,19.5,8.7,19.5,19.5v3.3"/>
	<path class="st13" d="M320.8,73.3h-3.4c-10.8,0-19.5,8.7-19.5,19.5v3.8"/>
	<path class="st13" d="M320.9,123.2h-3.5c-10.8,0-19.5,8.7-19.5,19.5v2.7"/>
	<path class="st13" d="M320.6,171.7h-3.3c-10.8,0-19.5,8.7-19.5,19.5v2.8"/>
	<ellipse class="st17" cx="398.9" cy="194" rx="37.4" ry="37.4"/>
</g>
</svg>
